<svg width="451" height="36" viewBox="0 0 451 36" fill="none" xmlns="http://www.w3.org/2000/svg">
<path d="M32.328 0.899997V34.5H22.824V21.396H9.864V34.5H0.360001V0.899997H9.864V13.524H22.824V0.899997H32.328Z" fill="white"/>
<path d="M63.2239 27.972H49.0159L46.3759 34.5H36.6799L51.5119 0.899997H60.8719L75.7519 34.5H65.8639L63.2239 27.972ZM60.4399 20.964L56.1199 10.212L51.7999 20.964H60.4399Z" fill="white"/>
<path d="M94.8143 25.572H89.6302V34.5H80.1263V0.899997H95.4863C98.5263 0.899997 101.166 1.412 103.406 2.436C105.646 3.428 107.374 4.868 108.59 6.756C109.806 8.612 110.414 10.804 110.414 13.332C110.414 15.764 109.838 17.892 108.686 19.716C107.566 21.508 105.95 22.916 103.838 23.94L111.086 34.5H100.91L94.8143 25.572ZM100.814 13.332C100.814 11.764 100.318 10.548 99.3263 9.684C98.3343 8.82 96.8623 8.388 94.9103 8.388H89.6302V18.228H94.9103C96.8623 18.228 98.3343 17.812 99.3263 16.98C100.318 16.116 100.814 14.9 100.814 13.332Z" fill="white"/>
<path d="M134.869 22.452V34.5H125.365V22.308L112.549 0.899997H122.581L130.549 14.244L138.517 0.899997H147.733L134.869 22.452Z" fill="white"/>
<path d="M151.689 0.899997H161.193V34.5H151.689V0.899997Z" fill="white"/>
<path d="M186.579 35.172C183.027 35.172 179.827 34.42 176.979 32.916C174.163 31.412 171.939 29.332 170.307 26.676C168.707 24.02 167.907 21.028 167.907 17.7C167.907 14.372 168.707 11.38 170.307 8.724C171.939 6.068 174.163 3.988 176.979 2.484C179.827 0.979997 183.027 0.227997 186.579 0.227997C190.131 0.227997 193.315 0.979997 196.131 2.484C198.979 3.988 201.203 6.068 202.803 8.724C204.435 11.38 205.251 14.372 205.251 17.7C205.251 21.028 204.435 24.02 202.803 26.676C201.203 29.332 198.979 31.412 196.131 32.916C193.315 34.42 190.131 35.172 186.579 35.172ZM186.579 27.3C188.275 27.3 189.811 26.9 191.187 26.1C192.563 25.3 193.651 24.18 194.451 22.74C195.251 21.268 195.651 19.588 195.651 17.7C195.651 15.812 195.251 14.148 194.451 12.708C193.651 11.236 192.563 10.1 191.187 9.3C189.811 8.5 188.275 8.1 186.579 8.1C184.883 8.1 183.347 8.5 181.971 9.3C180.595 10.1 179.507 11.236 178.707 12.708C177.907 14.148 177.507 15.812 177.507 17.7C177.507 19.588 177.907 21.268 178.707 22.74C179.507 24.18 180.595 25.3 181.971 26.1C183.347 26.9 184.883 27.3 186.579 27.3Z" fill="white"/>
<path d="M226.597 25.572H221.413V34.5H211.909V0.899997H227.269C230.309 0.899997 232.949 1.412 235.189 2.436C237.429 3.428 239.157 4.868 240.373 6.756C241.589 8.612 242.197 10.804 242.197 13.332C242.197 15.764 241.621 17.892 240.469 19.716C239.349 21.508 237.733 22.916 235.621 23.94L242.869 34.5H232.693L226.597 25.572ZM232.597 13.332C232.597 11.764 232.101 10.548 231.109 9.684C230.117 8.82 228.645 8.388 226.693 8.388H221.413V18.228H226.693C228.645 18.228 230.117 17.812 231.109 16.98C232.101 16.116 232.597 14.9 232.597 13.332Z" fill="white"/>
<path d="M266.064 35.172C262.512 35.172 259.312 34.42 256.464 32.916C253.648 31.412 251.424 29.332 249.792 26.676C248.192 24.02 247.392 21.028 247.392 17.7C247.392 14.372 248.192 11.38 249.792 8.724C251.424 6.068 253.648 3.988 256.464 2.484C259.312 0.979997 262.512 0.227997 266.064 0.227997C269.616 0.227997 272.8 0.979997 275.616 2.484C278.464 3.988 280.688 6.068 282.288 8.724C283.92 11.38 284.736 14.372 284.736 17.7C284.736 21.028 283.92 24.02 282.288 26.676C280.688 29.332 278.464 31.412 275.616 32.916C272.8 34.42 269.616 35.172 266.064 35.172ZM266.064 27.3C267.76 27.3 269.296 26.9 270.672 26.1C272.048 25.3 273.136 24.18 273.936 22.74C274.736 21.268 275.136 19.588 275.136 17.7C275.136 15.812 274.736 14.148 273.936 12.708C273.136 11.236 272.048 10.1 270.672 9.3C269.296 8.5 267.76 8.1 266.064 8.1C264.368 8.1 262.832 8.5 261.456 9.3C260.08 10.1 258.992 11.236 258.192 12.708C257.392 14.148 256.992 15.812 256.992 17.7C256.992 19.588 257.392 21.268 258.192 22.74C258.992 24.18 260.08 25.3 261.456 26.1C262.832 26.9 264.368 27.3 266.064 27.3Z" fill="white"/>
<path d="M332.867 16.98C334.787 17.652 336.29 18.708 337.378 20.148C338.466 21.556 339.011 23.268 339.011 25.284C339.011 28.228 337.827 30.5 335.459 32.1C333.091 33.7 329.667 34.5 325.187 34.5H307.042V0.899997H324.226C328.514 0.899997 331.779 1.7 334.019 3.3C336.259 4.868 337.378 6.996 337.378 9.684C337.378 11.284 336.979 12.724 336.179 14.004C335.411 15.252 334.307 16.244 332.867 16.98ZM316.45 7.764V14.244H322.979C326.179 14.244 327.778 13.156 327.778 10.98C327.778 8.836 326.179 7.764 322.979 7.764H316.45ZM324.419 27.636C327.747 27.636 329.411 26.5 329.411 24.228C329.411 21.956 327.747 20.82 324.419 20.82H316.45V27.636H324.419Z" fill="white"/>
<path d="M345.613 0.899997H355.117V26.964H371.149V34.5H345.613V0.899997Z" fill="white"/>
<path d="M393.018 35.172C389.466 35.172 386.266 34.42 383.418 32.916C380.602 31.412 378.378 29.332 376.746 26.676C375.146 24.02 374.346 21.028 374.346 17.7C374.346 14.372 375.146 11.38 376.746 8.724C378.378 6.068 380.602 3.988 383.418 2.484C386.266 0.979997 389.466 0.227997 393.018 0.227997C396.57 0.227997 399.754 0.979997 402.57 2.484C405.418 3.988 407.642 6.068 409.242 8.724C410.874 11.38 411.69 14.372 411.69 17.7C411.69 21.028 410.874 24.02 409.242 26.676C407.642 29.332 405.418 31.412 402.57 32.916C399.754 34.42 396.57 35.172 393.018 35.172ZM393.018 27.3C394.714 27.3 396.25 26.9 397.626 26.1C399.002 25.3 400.09 24.18 400.89 22.74C401.69 21.268 402.09 19.588 402.09 17.7C402.09 15.812 401.69 14.148 400.89 12.708C400.09 11.236 399.002 10.1 397.626 9.3C396.25 8.5 394.714 8.1 393.018 8.1C391.322 8.1 389.786 8.5 388.41 9.3C387.034 10.1 385.946 11.236 385.146 12.708C384.346 14.148 383.946 15.812 383.946 17.7C383.946 19.588 384.346 21.268 385.146 22.74C385.946 24.18 387.034 25.3 388.41 26.1C389.786 26.9 391.322 27.3 393.018 27.3Z" fill="white"/>
<path d="M440.86 16.98H449.26V30.9C447.34 32.276 445.132 33.332 442.636 34.068C440.14 34.804 437.644 35.172 435.148 35.172C431.628 35.172 428.46 34.436 425.644 32.964C422.828 31.46 420.62 29.38 419.02 26.724C417.42 24.068 416.62 21.06 416.62 17.7C416.62 14.34 417.42 11.332 419.02 8.676C420.62 6.02 422.844 3.956 425.692 2.484C428.54 0.979997 431.756 0.227997 435.34 0.227997C438.476 0.227997 441.292 0.755997 443.788 1.812C446.284 2.868 448.364 4.388 450.028 6.372L443.98 11.844C441.708 9.348 438.988 8.1 435.82 8.1C432.94 8.1 430.62 8.98 428.86 10.74C427.1 12.468 426.22 14.788 426.22 17.7C426.22 19.556 426.62 21.22 427.42 22.692C428.22 24.132 429.34 25.268 430.78 26.1C432.22 26.9 433.868 27.3 435.724 27.3C437.548 27.3 439.26 26.932 440.86 26.196V16.98Z" fill="white"/>
</svg>
