<svg fill="#202124" viewBox="0 0 449 36" xmlns="http://www.w3.org/2000/svg">
<path d="M32.328 0.899998V34.5H22.824V21.396H9.864V34.5H0.36V0.899998H9.864V13.524H22.824V0.899998H32.328ZM63.2239 27.972H49.0159L46.3759 34.5H36.6799L51.5119 0.899998H60.8719L75.7519 34.5H65.8639L63.2239 27.972ZM60.4399 20.964L56.1199 10.212L51.7999 20.964H60.4399ZM94.8143 25.572H89.6303V34.5H80.1263V0.899998H95.4863C98.5263 0.899998 101.166 1.412 103.406 2.436C105.646 3.428 107.374 4.868 108.59 6.756C109.806 8.612 110.414 10.804 110.414 13.332C110.414 15.764 109.838 17.892 108.686 19.716C107.566 21.508 105.95 22.916 103.838 23.94L111.086 34.5H100.91L94.8143 25.572ZM100.814 13.332C100.814 11.764 100.318 10.548 99.3263 9.684C98.3343 8.82 96.8623 8.388 94.9103 8.388H89.6303V18.228H94.9103C96.8623 18.228 98.3343 17.812 99.3263 16.98C100.318 16.116 100.814 14.9 100.814 13.332ZM134.869 22.452V34.5H125.365V22.308L112.549 0.899998H122.581L130.549 14.244L138.517 0.899998H147.733L134.869 22.452ZM167.321 35.172C163.769 35.172 160.569 34.42 157.721 32.916C154.905 31.412 152.681 29.332 151.049 26.676C149.449 24.02 148.649 21.028 148.649 17.7C148.649 14.372 149.449 11.38 151.049 8.724C152.681 6.068 154.905 3.988 157.721 2.484C160.569 0.979998 163.769 0.227998 167.321 0.227998C170.873 0.227998 174.057 0.979998 176.873 2.484C179.721 3.988 181.945 6.068 183.545 8.724C185.177 11.38 185.993 14.372 185.993 17.7C185.993 21.028 185.177 24.02 183.545 26.676C181.945 29.332 179.721 31.412 176.873 32.916C174.057 34.42 170.873 35.172 167.321 35.172ZM167.321 27.3C169.017 27.3 170.553 26.9 171.929 26.1C173.305 25.3 174.393 24.18 175.193 22.74C175.993 21.268 176.393 19.588 176.393 17.7C176.393 15.812 175.993 14.148 175.193 12.708C174.393 11.236 173.305 10.1 171.929 9.3C170.553 8.5 169.017 8.1 167.321 8.1C165.625 8.1 164.089 8.5 162.713 9.3C161.337 10.1 160.249 11.236 159.449 12.708C158.649 14.148 158.249 15.812 158.249 17.7C158.249 19.588 158.649 21.268 159.449 22.74C160.249 24.18 161.337 25.3 162.713 26.1C164.089 26.9 165.625 27.3 167.321 27.3ZM192.651 0.899998H202.155V34.5H192.651V0.899998ZM225.284 25.572H220.1V34.5H210.596V0.899998H225.956C228.996 0.899998 231.636 1.412 233.876 2.436C236.116 3.428 237.844 4.868 239.06 6.756C240.276 8.612 240.884 10.804 240.884 13.332C240.884 15.764 240.308 17.892 239.156 19.716C238.036 21.508 236.42 22.916 234.308 23.94L241.556 34.5H231.38L225.284 25.572ZM231.284 13.332C231.284 11.764 230.788 10.548 229.796 9.684C228.804 8.82 227.332 8.388 225.38 8.388H220.1V18.228H225.38C227.332 18.228 228.804 17.812 229.796 16.98C230.788 16.116 231.284 14.9 231.284 13.332ZM264.751 35.172C261.199 35.172 257.999 34.42 255.151 32.916C252.335 31.412 250.111 29.332 248.479 26.676C246.879 24.02 246.079 21.028 246.079 17.7C246.079 14.372 246.879 11.38 248.479 8.724C250.111 6.068 252.335 3.988 255.151 2.484C257.999 0.979998 261.199 0.227998 264.751 0.227998C268.303 0.227998 271.487 0.979998 274.303 2.484C277.151 3.988 279.375 6.068 280.975 8.724C282.607 11.38 283.423 14.372 283.423 17.7C283.423 21.028 282.607 24.02 280.975 26.676C279.375 29.332 277.151 31.412 274.303 32.916C271.487 34.42 268.303 35.172 264.751 35.172ZM264.751 27.3C266.447 27.3 267.983 26.9 269.359 26.1C270.735 25.3 271.823 24.18 272.623 22.74C273.423 21.268 273.823 19.588 273.823 17.7C273.823 15.812 273.423 14.148 272.623 12.708C271.823 11.236 270.735 10.1 269.359 9.3C267.983 8.5 266.447 8.1 264.751 8.1C263.055 8.1 261.519 8.5 260.143 9.3C258.767 10.1 257.679 11.236 256.879 12.708C256.079 14.148 255.679 15.812 255.679 17.7C255.679 19.588 256.079 21.268 256.879 22.74C257.679 24.18 258.767 25.3 260.143 26.1C261.519 26.9 263.055 27.3 264.751 27.3ZM331.554 16.98C333.474 17.652 334.978 18.708 336.066 20.148C337.154 21.556 337.698 23.268 337.698 25.284C337.698 28.228 336.514 30.5 334.146 32.1C331.778 33.7 328.354 34.5 323.874 34.5H305.73V0.899998H322.914C327.202 0.899998 330.466 1.7 332.706 3.3C334.946 4.868 336.066 6.996 336.066 9.684C336.066 11.284 335.666 12.724 334.866 14.004C334.098 15.252 332.994 16.244 331.554 16.98ZM315.138 7.764V14.244H321.666C324.866 14.244 326.466 13.156 326.466 10.98C326.466 8.836 324.866 7.764 321.666 7.764H315.138ZM323.106 27.636C326.434 27.636 328.098 26.5 328.098 24.228C328.098 21.956 326.434 20.82 323.106 20.82H315.138V27.636H323.106ZM344.301 0.899998H353.805V26.964H369.837V34.5H344.301V0.899998ZM391.706 35.172C388.154 35.172 384.954 34.42 382.106 32.916C379.29 31.412 377.066 29.332 375.434 26.676C373.834 24.02 373.034 21.028 373.034 17.7C373.034 14.372 373.834 11.38 375.434 8.724C377.066 6.068 379.29 3.988 382.106 2.484C384.954 0.979998 388.154 0.227998 391.706 0.227998C395.258 0.227998 398.442 0.979998 401.258 2.484C404.106 3.988 406.33 6.068 407.93 8.724C409.562 11.38 410.378 14.372 410.378 17.7C410.378 21.028 409.562 24.02 407.93 26.676C406.33 29.332 404.106 31.412 401.258 32.916C398.442 34.42 395.258 35.172 391.706 35.172ZM391.706 27.3C393.402 27.3 394.938 26.9 396.314 26.1C397.69 25.3 398.778 24.18 399.578 22.74C400.378 21.268 400.778 19.588 400.778 17.7C400.778 15.812 400.378 14.148 399.578 12.708C398.778 11.236 397.69 10.1 396.314 9.3C394.938 8.5 393.402 8.1 391.706 8.1C390.01 8.1 388.474 8.5 387.098 9.3C385.722 10.1 384.634 11.236 383.834 12.708C383.034 14.148 382.634 15.812 382.634 17.7C382.634 19.588 383.034 21.268 383.834 22.74C384.634 24.18 385.722 25.3 387.098 26.1C388.474 26.9 390.01 27.3 391.706 27.3ZM439.548 16.98H447.948V30.9C446.028 32.276 443.82 33.332 441.324 34.068C438.828 34.804 436.332 35.172 433.836 35.172C430.316 35.172 427.148 34.436 424.332 32.964C421.516 31.46 419.308 29.38 417.708 26.724C416.108 24.068 415.308 21.06 415.308 17.7C415.308 14.34 416.108 11.332 417.708 8.676C419.308 6.02 421.532 3.956 424.38 2.484C427.228 0.979998 430.444 0.227998 434.028 0.227998C437.164 0.227998 439.98 0.755998 442.476 1.812C444.972 2.868 447.052 4.388 448.716 6.372L442.668 11.844C440.396 9.348 437.676 8.1 434.508 8.1C431.628 8.1 429.308 8.98 427.548 10.74C425.788 12.468 424.908 14.788 424.908 17.7C424.908 19.556 425.308 21.22 426.108 22.692C426.908 24.132 428.028 25.268 429.468 26.1C430.908 26.9 432.556 27.3 434.412 27.3C436.236 27.3 437.948 26.932 439.548 26.196V16.98Z"/>
</svg>
